<svg width="21" height="15" viewBox="0 0 21 15" fill="none" xmlns="http://www.w3.org/2000/svg">
<path d="M9.33333 15C9.00278 15 8.72589 14.88 8.50267 14.64C8.27867 14.4008 8.16667 14.1042 8.16667 13.75C8.16667 13.3958 8.27867 13.0992 8.50267 12.86C8.72589 12.62 9.00278 12.5 9.33333 12.5H11.6667C11.9972 12.5 12.2745 12.62 12.4985 12.86C12.7217 13.0992 12.8333 13.3958 12.8333 13.75C12.8333 14.1042 12.7217 14.4008 12.4985 14.64C12.2745 14.88 11.9972 15 11.6667 15H9.33333ZM1.16667 2.5C0.836111 2.5 0.559222 2.38042 0.336 2.14125C0.112 1.90125 0 1.60417 0 1.25C0 0.895833 0.112 0.59875 0.336 0.35875C0.559222 0.119584 0.836111 0 1.16667 0H19.8333C20.1639 0 20.4408 0.119584 20.664 0.35875C20.888 0.59875 21 0.895833 21 1.25C21 1.60417 20.888 1.90125 20.664 2.14125C20.4408 2.38042 20.1639 2.5 19.8333 2.5H1.16667ZM4.66667 8.75C4.33611 8.75 4.05883 8.63 3.83483 8.39C3.61161 8.15083 3.5 7.85417 3.5 7.5C3.5 7.14583 3.61161 6.84875 3.83483 6.60875C4.05883 6.36958 4.33611 6.25 4.66667 6.25H16.3333C16.6639 6.25 16.9408 6.36958 17.164 6.60875C17.388 6.84875 17.5 7.14583 17.5 7.5C17.5 7.85417 17.388 8.15083 17.164 8.39C16.9408 8.63 16.6639 8.75 16.3333 8.75H4.66667Z" fill="white"/>
</svg>
