<svg width="17" height="17" viewBox="0 0 17 17" fill="none" xmlns="http://www.w3.org/2000/svg">
<path d="M15.1055 12.5821H13.8011C13.7121 12.5821 13.6286 12.621 13.5729 12.6897C13.443 12.8474 13.3039 12.9995 13.1573 13.1443C12.5578 13.7444 11.8476 14.2226 11.0662 14.5526C10.2565 14.8945 9.38635 15.07 8.50747 15.0684C7.6187 15.0684 6.75776 14.894 5.94878 14.5526C5.16731 14.2226 4.45718 13.7444 3.85766 13.1443C3.25708 12.5462 2.77818 11.8373 2.44751 11.0569C2.10425 10.2479 1.93169 9.3888 1.93169 8.50003C1.93169 7.61126 2.1061 6.75218 2.44751 5.94319C2.77778 5.16204 3.25278 4.45882 3.85766 3.85579C4.46255 3.25276 5.16577 2.77776 5.94878 2.44749C6.75776 2.10608 7.6187 1.93167 8.50747 1.93167C9.39624 1.93167 10.2572 2.10423 11.0662 2.44749C11.8492 2.77776 12.5524 3.25276 13.1573 3.85579C13.3039 4.00237 13.4412 4.15452 13.5729 4.31038C13.6286 4.37903 13.7139 4.418 13.8011 4.418H15.1055C15.2224 4.418 15.2948 4.28811 15.2298 4.18977C13.8067 1.97806 11.3166 0.514091 8.48706 0.521512C4.04136 0.532645 0.477 4.14153 0.521531 8.58167C0.566062 12.9513 4.12485 16.4785 8.50747 16.4785C11.3296 16.4785 13.8085 15.0164 15.2298 12.8103C15.2929 12.7119 15.2224 12.5821 15.1055 12.5821ZM16.755 8.38313L14.1221 6.30501C14.0238 6.22708 13.8809 6.29759 13.8809 6.4219V7.83206H8.05473C7.97309 7.83206 7.9063 7.89886 7.9063 7.9805V9.01956C7.9063 9.1012 7.97309 9.168 8.05473 9.168H13.8809V10.5782C13.8809 10.7025 14.0256 10.773 14.1221 10.695L16.755 8.61692C16.7728 8.60304 16.7871 8.5853 16.797 8.56504C16.8069 8.54479 16.812 8.52256 16.812 8.50003C16.812 8.4775 16.8069 8.45527 16.797 8.43501C16.7871 8.41476 16.7728 8.39702 16.755 8.38313Z" fill="#257A8C"/>
</svg>
