<svg width="18" height="21" viewBox="0 0 18 21" fill="none" xmlns="http://www.w3.org/2000/svg">
<path d="M9 15.9085L10.4 14.514L8.825 12.9203H13V10.9282H8.825L10.4 9.33457L9 7.9401L5 11.9243L9 15.9085ZM2 20.8887C1.45 20.8887 0.979 20.6938 0.587 20.304C0.195667 19.9136 0 19.4445 0 18.8966V4.95196C0 4.40414 0.195667 3.935 0.587 3.54455C0.979 3.15476 1.45 2.95987 2 2.95987H6.2C6.41667 2.36224 6.77933 1.88082 7.288 1.5156C7.796 1.15038 8.36667 0.967773 9 0.967773C9.63333 0.967773 10.2043 1.15038 10.713 1.5156C11.221 1.88082 11.5833 2.36224 11.8 2.95987H16C16.55 2.95987 17.021 3.15476 17.413 3.54455C17.8043 3.935 18 4.40414 18 4.95196V18.8966C18 19.4445 17.8043 19.9136 17.413 20.304C17.021 20.6938 16.55 20.8887 16 20.8887H2ZM9 4.20493C9.21667 4.20493 9.396 4.13421 9.538 3.99277C9.67933 3.85199 9.75 3.6737 9.75 3.45789C9.75 3.24208 9.67933 3.06346 9.538 2.92202C9.396 2.78124 9.21667 2.71086 9 2.71086C8.78333 2.71086 8.60433 2.78124 8.463 2.92202C8.321 3.06346 8.25 3.24208 8.25 3.45789C8.25 3.6737 8.321 3.85199 8.463 3.99277C8.60433 4.13421 8.78333 4.20493 9 4.20493Z" fill="#257A8C"/>
</svg>
