<svg width="17" height="17" viewBox="0 0 17 17" fill="none" xmlns="http://www.w3.org/2000/svg">
<path d="M15.9405 3.68098L15.5947 3.48133C15.6352 3.26651 15.6352 3.04599 15.5947 2.83117L15.9405 2.63152C16.0769 2.55279 16.1765 2.42309 16.2173 2.27096C16.258 2.11882 16.2367 1.95672 16.158 1.82031C16.0792 1.6839 15.9495 1.58436 15.7974 1.54357C15.6453 1.50279 15.4832 1.52412 15.3468 1.60285L15.0002 1.80324C14.8343 1.66093 14.6436 1.55047 14.4376 1.47742V1.07812C14.4376 0.920653 14.375 0.76963 14.2637 0.65828C14.1523 0.546931 14.0013 0.484375 13.8438 0.484375C13.6864 0.484375 13.5353 0.546931 13.424 0.65828C13.3127 0.76963 13.2501 0.920653 13.2501 1.07812V1.47742C13.0441 1.55047 12.8534 1.66093 12.6875 1.80324L12.3409 1.60285C12.2734 1.56387 12.1988 1.53856 12.1215 1.52839C12.0442 1.51822 11.9656 1.52338 11.8903 1.54357C11.8149 1.56377 11.7443 1.5986 11.6825 1.64608C11.6206 1.69357 11.5687 1.75277 11.5297 1.82031C11.4907 1.88786 11.4654 1.96242 11.4552 2.03974C11.4451 2.11706 11.4502 2.19563 11.4704 2.27096C11.4906 2.34628 11.5255 2.4169 11.5729 2.47876C11.6204 2.54063 11.6796 2.59254 11.7472 2.63152L12.093 2.83117C12.0525 3.04599 12.0525 3.26651 12.093 3.48133L11.7472 3.68098C11.6339 3.7463 11.5454 3.84718 11.4953 3.96796C11.4452 4.08875 11.4365 4.22268 11.4703 4.34897C11.5041 4.47526 11.5787 4.58686 11.6824 4.66643C11.7862 4.74601 11.9133 4.78911 12.044 4.78906C12.1483 4.78939 12.2508 4.76198 12.3409 4.70965L12.6875 4.50926C12.8534 4.65157 13.0441 4.76203 13.2501 4.83508V5.23438C13.2501 5.39185 13.3127 5.54287 13.424 5.65422C13.5353 5.76557 13.6864 5.82812 13.8438 5.82812C14.0013 5.82812 14.1523 5.76557 14.2637 5.65422C14.375 5.54287 14.4376 5.39185 14.4376 5.23438V4.83508C14.6436 4.76203 14.8343 4.65157 15.0002 4.50926L15.3468 4.70965C15.4369 4.76198 15.5394 4.78939 15.6437 4.78906C15.7744 4.78911 15.9015 4.74601 16.0052 4.66643C16.109 4.58686 16.1836 4.47526 16.2174 4.34897C16.2512 4.22268 16.2424 4.08875 16.1924 3.96796C16.1423 3.84718 16.0538 3.7463 15.9405 3.68098ZM13.8438 3.75C13.7264 3.75 13.6116 3.71518 13.514 3.64994C13.4163 3.58469 13.3402 3.49196 13.2953 3.38347C13.2504 3.27497 13.2386 3.15559 13.2615 3.04042C13.2844 2.92524 13.341 2.81944 13.424 2.73641C13.507 2.65337 13.6128 2.59682 13.728 2.57391C13.8432 2.551 13.9626 2.56276 14.0711 2.6077C14.1796 2.65264 14.2723 2.72874 14.3375 2.82638C14.4028 2.92402 14.4376 3.03882 14.4376 3.15625C14.4376 3.31372 14.375 3.46474 14.2637 3.57609C14.1523 3.68744 14.0013 3.75 13.8438 3.75ZM8.5001 4.64062C9.14598 4.64062 9.77735 4.83215 10.3144 5.19098C10.8514 5.54981 11.27 6.05983 11.5171 6.65655C11.7643 7.25326 11.829 7.90987 11.703 8.54334C11.577 9.17681 11.2659 9.75869 10.8092 10.2154C10.3525 10.6721 9.77066 10.9831 9.13719 11.1091C8.50372 11.2351 7.84711 11.1705 7.2504 10.9233C6.65368 10.6761 6.14366 10.2576 5.78483 9.72053C5.426 9.1835 5.23447 8.55213 5.23447 7.90625C5.23447 7.04015 5.57853 6.20953 6.19095 5.5971C6.80337 4.98468 7.634 4.64062 8.5001 4.64062ZM16.112 7.21453C16.3832 8.82698 16.135 10.4839 15.4032 11.9461C14.6714 13.4083 13.4938 14.6001 12.0405 15.3494C10.5872 16.0987 8.93333 16.3667 7.31775 16.1148C5.70217 15.8629 4.20844 15.104 3.05225 13.9478C1.89606 12.7917 1.13722 11.2979 0.885309 9.68235C0.633394 8.06677 0.901436 6.41293 1.65073 4.95961C2.40003 3.5063 3.59181 2.32872 5.054 1.59689C6.51618 0.865069 8.17312 0.616867 9.78557 0.888125C9.93969 0.915382 10.0768 1.00239 10.1671 1.13023C10.2574 1.25808 10.2936 1.4164 10.2678 1.57078C10.242 1.72515 10.1562 1.86308 10.0292 1.95457C9.90222 2.04605 9.74423 2.08369 9.58963 2.0593C8.65308 1.90175 7.69346 1.95018 6.77754 2.20121C5.86161 2.45224 5.01139 2.89984 4.28604 3.51287C3.5607 4.1259 2.97765 4.88962 2.57747 5.7509C2.17729 6.61217 1.9696 7.5503 1.96885 8.5C1.96744 10.0988 2.55506 11.6421 3.61947 12.8351C4.05114 12.209 4.59948 11.672 5.23447 11.2535C5.28861 11.2178 5.35297 11.2007 5.41771 11.205C5.48245 11.2093 5.544 11.2347 5.59295 11.2773C6.39965 11.9753 7.43074 12.3594 8.4975 12.3594C9.56426 12.3594 10.5953 11.9753 11.402 11.2773C11.4511 11.2345 11.5127 11.209 11.5776 11.2047C11.6425 11.2004 11.7071 11.2176 11.7613 11.2535C12.3969 11.672 12.946 12.209 13.3785 12.8351C14.4437 11.6424 15.0321 10.0991 15.0313 8.5C15.0314 8.13494 15.0011 7.77051 14.9408 7.41047C14.9271 7.33323 14.9289 7.25405 14.946 7.17751C14.9632 7.10096 14.9953 7.02857 15.0405 6.9645C15.0858 6.90044 15.1433 6.84598 15.2097 6.80426C15.2761 6.76254 15.3501 6.7344 15.4275 6.72146C15.5049 6.70852 15.584 6.71103 15.6604 6.72886C15.7368 6.74668 15.8089 6.77946 15.8725 6.82531C15.9362 6.87115 15.9901 6.92915 16.0312 6.99596C16.0723 7.06277 16.0997 7.13705 16.112 7.21453Z" fill="#257A8C"/>
</svg>
