<svg width="21" height="21" viewBox="0 0 21 21" fill="none" xmlns="http://www.w3.org/2000/svg">
<path fill-rule="evenodd" clip-rule="evenodd" d="M0 10.4C0 7.64175 1.09571 4.99647 3.04609 3.04609C4.99647 1.09571 7.64175 0 10.4 0C13.1583 0 15.8035 1.09571 17.7539 3.04609C19.7043 4.99647 20.8 7.64175 20.8 10.4C20.8 13.1583 19.7043 15.8035 17.7539 17.7539C15.8035 19.7043 13.1583 20.8 10.4 20.8C7.64175 20.8 4.99647 19.7043 3.04609 17.7539C1.09571 15.8035 0 13.1583 0 10.4H0ZM9.80651 14.8512L15.7941 7.36597L14.7125 6.50069L9.60683 12.8807L5.9904 9.86752L5.10293 10.9325L9.80651 14.8526V14.8512Z" fill="#90CC96"/>
</svg>
