<svg width="18" height="14" viewBox="0 0 18 14" fill="none" xmlns="http://www.w3.org/2000/svg">
<path d="M2.33317 13.6663C1.87484 13.6663 1.48234 13.503 1.15567 13.1763C0.829005 12.8497 0.66595 12.4575 0.666505 11.9997V1.99968C0.666505 1.54134 0.829839 1.14884 1.15651 0.822176C1.48317 0.495509 1.87539 0.332454 2.33317 0.333009H15.6665C16.1248 0.333009 16.5173 0.496342 16.844 0.823009C17.1707 1.14968 17.3337 1.5419 17.3332 1.99968V11.9997C17.3332 12.458 17.1698 12.8505 16.8432 13.1772C16.5165 13.5038 16.1243 13.6669 15.6665 13.6663H2.33317ZM15.6665 3.66634L9.43734 7.56218C9.36789 7.60384 9.29484 7.63523 9.21817 7.65634C9.1415 7.67745 9.06873 7.68773 8.99984 7.68718C8.93039 7.68718 8.85734 7.6769 8.78067 7.65634C8.70401 7.63579 8.63123 7.6044 8.56234 7.56218L2.33317 3.66634V11.9997H15.6665V3.66634ZM8.99984 6.16634L15.6665 1.99968H2.33317L8.99984 6.16634ZM2.33317 3.87468V2.64551V2.66634V2.65634V3.87468Z" fill="#257A8C"/>
</svg>
