<svg width="15" height="16" viewBox="0 0 15 16" fill="none" xmlns="http://www.w3.org/2000/svg">
<path d="M2.66645 0C3.3737 0 4.05197 0.280952 4.55207 0.781049C5.05217 1.28115 5.33312 1.95942 5.33312 2.66667V13.3333C5.33312 14.0406 5.05217 14.7189 4.55207 15.219C4.05197 15.719 3.3737 16 2.66645 16C1.95921 16 1.28093 15.719 0.780835 15.219C0.280738 14.7189 -0.000213608 14.0406 -0.000213623 13.3333V2.66667C-0.000213623 1.95942 0.280738 1.28115 0.780835 0.781049C1.28093 0.280952 1.95921 0 2.66645 0ZM11.5553 0C12.2626 0 12.9409 0.280952 13.441 0.781049C13.9411 1.28115 14.222 1.95942 14.222 2.66667V13.3333C14.222 14.0406 13.9411 14.7189 13.441 15.219C12.9409 15.719 12.2626 16 11.5553 16C10.8481 16 10.1698 15.719 9.66972 15.219C9.16963 14.7189 8.88868 14.0406 8.88868 13.3333V2.66667C8.88868 1.95942 9.16963 1.28115 9.66972 0.781049C10.1698 0.280952 10.8481 0 11.5553 0Z" fill="#FFC72C"/>
</svg>
