<svg width="21" height="20" viewBox="0 0 21 20" fill="none" xmlns="http://www.w3.org/2000/svg">
<path d="M10.4999 19.1666C11.7039 19.1682 12.8964 18.9318 14.0087 18.471C15.1211 18.0102 16.1314 17.3342 16.9817 16.4817C17.8342 15.6314 18.5102 14.6211 18.971 13.5087C19.4318 12.3964 19.6682 11.2039 19.6666 9.99993C19.6681 8.79592 19.4317 7.60348 18.971 6.49112C18.5102 5.37877 17.8341 4.36843 16.9817 3.51818C16.1314 2.66569 15.1211 1.98963 14.0087 1.52887C12.8964 1.0681 11.7039 0.8317 10.4999 0.83326C9.29592 0.831725 8.10348 1.06813 6.99112 1.5289C5.87877 1.98967 4.86843 2.66571 4.01818 3.51818C3.16571 4.36843 2.48967 5.37877 2.0289 6.49112C1.56813 7.60348 1.33172 8.79592 1.33326 9.99993C1.3317 11.2039 1.5681 12.3964 2.02887 13.5087C2.48963 14.6211 3.16569 15.6314 4.01818 16.4817C4.86843 17.3341 5.87877 18.0102 6.99112 18.471C8.10348 18.9317 9.29592 19.1681 10.4999 19.1666V19.1666Z" stroke="#E28440" stroke-width="1.25" stroke-linejoin="round"/>
<path fill-rule="evenodd" clip-rule="evenodd" d="M10.4998 15.9582C10.8037 15.9582 11.0952 15.8375 11.3101 15.6226C11.5249 15.4077 11.6457 15.1162 11.6457 14.8123C11.6457 14.5084 11.5249 14.217 11.3101 14.0021C11.0952 13.7872 10.8037 13.6665 10.4998 13.6665C10.1959 13.6665 9.9045 13.7872 9.68961 14.0021C9.47473 14.217 9.354 14.5084 9.354 14.8123C9.354 15.1162 9.47473 15.4077 9.68961 15.6226C9.9045 15.8375 10.1959 15.9582 10.4998 15.9582Z" fill="#E28440"/>
<path d="M10.5 4.5V11.8333" stroke="#E28440" stroke-width="1.25" stroke-linecap="round" stroke-linejoin="round"/>
</svg>
