<svg width="14" height="20" viewBox="0 0 14 20" fill="none" xmlns="http://www.w3.org/2000/svg">
<path d="M7.00004 3.33325V0.833252L3.66671 4.16659L7.00004 7.49992V4.99992C9.75837 4.99992 12 7.24159 12 9.99992C12 10.8416 11.7917 11.6416 11.4167 12.3333L12.6334 13.5499C13.3086 12.489 13.6671 11.2575 13.6667 9.99992C13.6667 6.31659 10.6834 3.33325 7.00004 3.33325ZM7.00004 14.9999C4.24171 14.9999 2.00004 12.7583 2.00004 9.99992C2.00004 9.15825 2.20837 8.35825 2.58337 7.66659L1.36671 6.44992C0.691501 7.51083 0.333024 8.74237 0.333374 9.99992C0.333374 13.6833 3.31671 16.6666 7.00004 16.6666V19.1666L10.3334 15.8333L7.00004 12.4999V14.9999Z" fill="#257A8C"/>
</svg>
